# xmcd
#
# Track frame offsets:
#	150
#	8848
#	23441
#	35685
#	49968
#	61359
#	72090
#	83839
#	96082
#	108499
#	120490
#
# Disc length: 1748 seconds
#
# Revision: 1
# Processed by: cddbd v1.5.2PL0 Copyright (c) Steve Scherf et al.
# Submitted via: audiograbber 1.83.01
#
DISCID=8606d20b
DTITLE=Stonewall Jackson - A Tribute To Hank Williams
DYEAR=1969
DGENRE=Country
TTITLE0=Here's To Hank
TTITLE1=I'm So Lonesome I Could Cry
TTITLE2=Lovesick Blues
TTITLE3=Cold, Cold Heart
TTITLE4=I Can't Help It
TTITLE5=Lonesome Whistle
TTITLE6=Your Cheatin' Heart
TTITLE7=Take These Chains From My Heart
TTITLE8=You Win Again
TTITLE9=A Mansion On The Hill
TTITLE10=Let's Turn Back The Years
EXTD=
EXTT0=
EXTT1=
EXTT2=
EXTT3=
EXTT4=
EXTT5=
EXTT6=
EXTT7=
EXTT8=
EXTT9=
EXTT10=
PLAYORDER=
